<?xml version="1.0" encoding="UTF-8"?>
<svg width="512px" height="512px" viewBox="0 0 512 512" version="1.1" xmlns="http://www.w3.org/2000/svg" xmlns:xlink="http://www.w3.org/1999/xlink">
    <title>export (favicon-svg)</title>
    <g id="export-(favicon-svg)" stroke="none" fill="none" fill-rule="evenodd" stroke-width="1">
        <g id="pippin" transform="translate(57, 49)">
            <path d="M0,62.4364922 C0,40.7252867 2.26191387,32.8522789 6.50931527,24.9149867 C10.7567167,16.9776945 16.9896056,10.7484611 24.9315557,6.50355074 L25.7395318,6.07871623 C33.2886867,2.17763995 41.2047067,0.0726583046 61.3823381,0 L259.580344,0 C278.940767,0.0563484723 286.192614,0.877302918 294.121575,2.76489385 C302.338862,4.72112445 309.602487,7.82297552 316.696945,12.4054574 L318.174334,13.3776018 C324.39927,17.5554703 330.12489,22.5112285 342.571059,35.4413337 L365.515752,59.4143562 C378.577526,73.1318708 382.800484,78.5850416 386.823481,85.2324376 C390.992769,92.1215571 393.786899,99.0809095 395.538706,106.939492 L395.806694,108.175928 C397.363232,115.580662 398,122.959837 398,142.430755 L398,351.561561 C398,373.272766 395.738086,381.145774 391.490685,389.083066 C387.243283,397.020359 381.010394,403.249592 373.068444,407.494502 L372.260468,407.919337 C364.711313,411.820413 356.795293,413.925395 336.617662,414 L62.4750802,414 C40.7511337,414 32.8735058,411.739413 24.9315557,407.494502 C16.9896056,403.249592 10.7567167,397.020359 6.50931527,389.083066 L6.08423146,388.275564 C2.18086589,380.730837 0.0746489627,372.819459 0,352.653662 L0,62.4364922 Z" id="floppy" fill="#85BBFF"></path>
            <g id="eyes" transform="translate(44.6735, 107.6205)">
                <g id="left-eye" transform="translate(0, 4.0612)">
                    <ellipse id="left-white" fill="#FFFFFF" cx="64.9795918" cy="64.8581169" rx="64.9795918" ry="64.8581169"></ellipse>
                    <ellipse id="left-pupil" fill="#000000" cx="50.7653061" cy="79.0724026" rx="34.5204082" ry="34.3989332"></ellipse>
                </g>
                <g id="right-eye" transform="translate(180.7245, 0)">
                    <ellipse id="right-white" fill="#FFFFFF" transform="translate(64.9796, 64.8581) rotate(180) translate(-64.9796, -64.8581)" cx="64.9795918" cy="64.8581169" rx="64.9795918" ry="64.8581169"></ellipse>
                    <ellipse id="right-pupil" fill="#000000" transform="translate(79.1939, 50.6438) rotate(180) translate(-79.1939, -50.6438)" cx="79.1938776" cy="50.6438312" rx="34.5204082" ry="34.3989332"></ellipse>
                </g>
            </g>
            <circle id="mouth" fill="#FFFFFF" cx="201.030612" cy="284.040816" r="42.6428571"></circle>
        </g>
    </g>
</svg>