<?xml version="1.0" encoding="UTF-8"?>
<svg width="512px" height="512px" viewBox="0 0 512 512" version="1.1" xmlns="http://www.w3.org/2000/svg" xmlns:xlink="http://www.w3.org/1999/xlink">
    <title>export (favicon-svg)</title>
    <defs>
        <path d="M2.13162821e-14,351.52492 L3.62733656e-15,62.4750802 C-2.107587e-15,40.7511337 2.26191387,32.8735058 6.50931527,24.9315557 C10.7567167,16.9896056 16.9896056,10.7567167 24.9315557,6.50931527 C32.8735058,2.26191387 40.7511337,-7.10542736e-15 62.4750802,-7.10542736e-15 L257.435873,-1.05973086e-14 C278.425257,2.86296706e-15 285.912984,0.81038676 294.127935,2.76636277 C302.342885,4.72233878 309.604549,7.82390405 316.697733,12.4062611 C323.790917,16.9886181 329.553656,21.8377038 344.066473,37.0012247 L353.326531,46.6764706 L353.326531,46.6764706 L364.033711,57.8637233 C378.256632,72.7243498 382.643443,78.3348974 386.815445,85.2294604 C390.987447,92.1240234 393.783586,99.0894896 395.536724,106.955054 C397.289862,114.820619 398,121.907089 398,142.477206 L398,351.52492 C398,373.248866 395.738086,381.126494 391.490685,389.068444 C387.243283,397.010394 381.010394,403.243283 373.068444,407.490685 C365.126494,411.738086 357.248866,414 335.52492,414 L62.4750802,414 C40.7511337,414 32.8735058,411.738086 24.9315557,407.490685 C16.9896056,403.243283 10.7567167,397.010394 6.50931527,389.068444 C2.26191387,381.126494 2.13162821e-14,373.248866 2.13162821e-14,351.52492 Z" id="path-1"></path>
    </defs>
    <g id="export-(favicon-svg)" stroke="none" fill="none" fill-rule="evenodd" stroke-width="1">
        <g id="pippin" transform="translate(57, 49)">
            <path d="M2.13162821e-14,351.52492 L3.62733656e-15,62.4750802 C-2.107587e-15,40.7511337 2.26191387,32.8735058 6.50931527,24.9315557 C10.7567167,16.9896056 16.9896056,10.7567167 24.9315557,6.50931527 C32.8735058,2.26191387 40.7511337,-7.10542736e-15 62.4750802,-7.10542736e-15 L257.435873,-1.05973086e-14 C278.425257,2.86296706e-15 285.912984,0.81038676 294.127935,2.76636277 C302.342885,4.72233878 309.604549,7.82390405 316.697733,12.4062611 C323.790917,16.9886181 329.553656,21.8377038 344.066473,37.0012247 L353.326531,46.6764706 L353.326531,46.6764706 L364.033711,57.8637233 C378.256632,72.7243498 382.643443,78.3348974 386.815445,85.2294604 C390.987447,92.1240234 393.783586,99.0894896 395.536724,106.955054 C397.289862,114.820619 398,121.907089 398,142.477206 L398,351.52492 C398,373.248866 395.738086,381.126494 391.490685,389.068444 C387.243283,397.010394 381.010394,403.243283 373.068444,407.490685 C365.126494,411.738086 357.248866,414 335.52492,414 L62.4750802,414 C40.7511337,414 32.8735058,411.738086 24.9315557,407.490685 C16.9896056,403.243283 10.7567167,397.010394 6.50931527,389.068444 C2.26191387,381.126494 2.13162821e-14,373.248866 2.13162821e-14,351.52492 Z" id="floppy" fill="#85BBFF"></path>
            <g id="eyes" transform="translate(42.6429, 217.0306)">
                <g id="left-eye">
                    <circle id="left-white" fill="#FFFFFF" cx="64.9795918" cy="64.9795918" r="64.9795918"></circle>
                    <circle id="left-pupil" fill="#000000" cx="50.7653061" cy="79.1938776" r="34.5204082"></circle>
                </g>
                <g id="right-eye" transform="translate(180.7245, 0)">
                    <circle id="right-white" fill="#FFFFFF" transform="translate(64.9796, 64.9796) rotate(180) translate(-64.9796, -64.9796)" cx="64.9795918" cy="64.9795918" r="64.9795918"></circle>
                    <circle id="right-pupil" fill="#000000" transform="translate(79.1939, 50.7653) rotate(180) translate(-79.1939, -50.7653)" cx="79.1938776" cy="50.7653061" r="34.5204082"></circle>
                </g>
            </g>
            <mask id="mask-2" fill="white">
                <use xlink:href="#path-1"></use>
            </mask>
            <use id="floppy-mask" fill="#85BBFF" xlink:href="#path-1"></use>
            <path d="M2.13162821e-14,351.52492 L3.62733656e-15,62.4750802 C-2.107587e-15,40.7511337 2.26191387,32.8735058 6.50931527,24.9315557 C10.7567167,16.9896056 16.9896056,10.7567167 24.9315557,6.50931527 C32.8735058,2.26191387 40.7511337,-7.10542736e-15 62.4750802,-7.10542736e-15 L257.435873,-1.05973086e-14 C278.425257,2.86296706e-15 285.912984,0.81038676 294.127935,2.76636277 C302.342885,4.72233878 309.604549,7.82390405 316.697733,12.4062611 C323.790917,16.9886181 329.553656,21.8377038 344.066473,37.0012247 L353.326531,46.6764706 L353.326531,46.6764706 L364.033711,57.8637233 C378.256632,72.7243498 382.643443,78.3348974 386.815445,85.2294604 C390.987447,92.1240234 393.783586,99.0894896 395.536724,106.955054 C397.289862,114.820619 398,121.907089 398,142.477206 L398,351.52492 C398,373.248866 395.738086,381.126494 391.490685,389.068444 C387.243283,397.010394 381.010394,403.243283 373.068444,407.490685 C365.126494,411.738086 357.248866,414 335.52492,414 L62.4750802,414 C40.7511337,414 32.8735058,411.738086 24.9315557,407.490685 C16.9896056,403.243283 10.7567167,397.010394 6.50931527,389.068444 C2.26191387,381.126494 2.13162821e-14,373.248866 2.13162821e-14,351.52492 Z" id="floppy" fill="#85BBFF" mask="url(#mask-2)"></path>
            <circle id="left-white" fill="#FFFFFF" mask="url(#mask-2)" cx="108" cy="250" r="65"></circle>
            <circle id="left-pupil" fill="#000000" mask="url(#mask-2)" cx="93.5" cy="263.5" r="34.5"></circle>
            <circle id="right-white" fill="#FFFFFF" mask="url(#mask-2)" transform="translate(288, 250) rotate(180) translate(-288, -250)" cx="288" cy="250" r="65"></circle>
            <path d="M81,0 L270,0 L270,87.1749733 C270,94.4162888 269.246029,97.0421647 267.830228,99.6894814 C266.414428,102.336798 264.336798,104.414428 261.689481,105.830228 C259.042165,107.246029 256.416289,108 249.174973,108 L101.825027,108 C94.5837112,108 91.9578353,107.246029 89.3105186,105.830228 C86.6632019,104.414428 84.5855722,102.336798 83.1697718,99.6894814 C81.7539713,97.0421647 81,94.4162888 81,87.1749733 L81,0 L81,0 Z" id="slide-lock" fill="#FFFFFF" mask="url(#mask-2)"></path>
            <circle id="right-pupil" fill="#000000" mask="url(#mask-2)" transform="translate(302.5, 235.5) rotate(180) translate(-302.5, -235.5)" cx="302.5" cy="235.5" r="34.5"></circle>
            <ellipse id="mouth" fill="#FFFFFF" mask="url(#mask-2)" cx="200" cy="335.5" rx="54" ry="20.5"></ellipse>
        </g>
    </g>
</svg>