<?xml version="1.0" encoding="UTF-8"?>
<svg width="196px" height="204px" viewBox="0 0 196 204" version="1.1" xmlns="http://www.w3.org/2000/svg" xmlns:xlink="http://www.w3.org/1999/xlink">
    <title>export</title>
    <g id="export" stroke="none" fill="none" fill-rule="evenodd" stroke-width="1">
        <g id="pippin">
            <path d="M0,173.233378 L0,30.7666224 C0,20.0683975 1.11390733,16.1889627 3.20559245,12.2778516 C5.29727756,8.36674045 8.36674045,5.29727756 12.2778516,3.20559245 C16.1889627,1.11390733 20.0683975,0 30.7666224,0 L126.769476,2.11892626e-14 C137.108528,-5.72786541e-15 140.797087,0.399429198 144.843791,1.36336438 C148.890495,2.32729956 152.467556,3.85574073 155.96131,6.11376467 C159.455063,8.37178861 162.293323,10.761201 169.43991,18.232633 L174,23 L174,23 L179.283541,28.5237017 C186.283786,35.8421399 188.442768,38.6047316 190.495985,41.9993543 C192.549203,45.3939769 193.925206,48.8232069 194.787906,52.6955335 C195.650605,56.5678602 196,60.056562 196,70.1838999 L196,173.233378 C196,183.931602 194.886093,187.811037 192.794408,191.722148 C190.702722,195.63326 187.63326,198.702722 183.722148,200.794408 C179.811037,202.886093 175.931602,204 165.233378,204 L30.7666224,204 C20.0683975,204 16.1889627,202.886093 12.2778516,200.794408 C8.36674045,198.702722 5.29727756,195.63326 3.20559245,191.722148 C1.11390733,187.811037 0,183.931602 0,173.233378 Z" id="floppy" fill="#85BBFF"></path>
            <g id="eyes" transform="translate(21, 107)">
                <g id="left-eye">
                    <circle id="left-white" fill="#FFFFFF" cx="32" cy="32" r="32"></circle>
                    <circle id="left-pupil" fill="#000000" cx="25" cy="39" r="17"></circle>
                </g>
                <g id="right-eye" transform="translate(88, 0)">
                    <circle id="right-white" fill="#FFFFFF" transform="translate(33, 32) rotate(180) translate(-33, -32)" cx="33" cy="32" r="32"></circle>
                    <circle id="right-pupil" fill="#000000" transform="translate(40, 25) rotate(180) translate(-40, -25)" cx="40" cy="25" r="17"></circle>
                </g>
            </g>
        </g>
    </g>
</svg>