<?xml version="1.0" encoding="UTF-8"?>
<svg width="196px" height="204px" viewBox="0 0 196 204" version="1.1" xmlns="http://www.w3.org/2000/svg" xmlns:xlink="http://www.w3.org/1999/xlink">
    <title>export</title>
    <defs>
        <path d="M0,173.233378 L0,30.7666224 C0,20.0683975 1.11390733,16.1889627 3.20559245,12.2778516 C5.29727756,8.36674045 8.36674045,5.29727756 12.2778516,3.20559245 C16.1889627,1.11390733 20.0683975,0 30.7666224,0 L126.769476,2.11892626e-14 C137.108528,-5.72786541e-15 140.797087,0.399429198 144.843791,1.36336438 C148.890495,2.32729956 152.467556,3.85574073 155.96131,6.11376467 C159.455063,8.37178861 162.293323,10.761201 169.43991,18.232633 L174,23 L174,23 L179.283541,28.5237017 C186.283786,35.8421399 188.442768,38.6047316 190.495985,41.9993543 C192.549203,45.3939769 193.925206,48.8232069 194.787906,52.6955335 C195.650605,56.5678602 196,60.056562 196,70.1838999 L196,173.233378 C196,183.931602 194.886093,187.811037 192.794408,191.722148 C190.702722,195.63326 187.63326,198.702722 183.722148,200.794408 C179.811037,202.886093 175.931602,204 165.233378,204 L30.7666224,204 C20.0683975,204 16.1889627,202.886093 12.2778516,200.794408 C8.36674045,198.702722 5.29727756,195.63326 3.20559245,191.722148 C1.11390733,187.811037 0,183.931602 0,173.233378 Z" id="path-1"></path>
    </defs>
    <g id="export" stroke="none" fill="none">
        <mask id="mask-2" fill="white">
            <use xlink:href="#path-1"></use>
        </mask>
        <use id="floppy-mask" fill="#85BBFF" fill-rule="evenodd" xlink:href="#path-1"></use>
        <path d="M0,173.233378 L0,30.7666224 C0,20.0683975 1.11390733,16.1889627 3.20559245,12.2778516 C5.29727756,8.36674045 8.36674045,5.29727756 12.2778516,3.20559245 C16.1889627,1.11390733 20.0683975,0 30.7666224,0 L126.769476,2.11892626e-14 C137.108528,-5.72786541e-15 140.797087,0.399429198 144.843791,1.36336438 C148.890495,2.32729956 152.467556,3.85574073 155.96131,6.11376467 C159.455063,8.37178861 162.293323,10.761201 169.43991,18.232633 L174,23 L174,23 L179.283541,28.5237017 C186.283786,35.8421399 188.442768,38.6047316 190.495985,41.9993543 C192.549203,45.3939769 193.925206,48.8232069 194.787906,52.6955335 C195.650605,56.5678602 196,60.056562 196,70.1838999 L196,173.233378 C196,183.931602 194.886093,187.811037 192.794408,191.722148 C190.702722,195.63326 187.63326,198.702722 183.722148,200.794408 C179.811037,202.886093 175.931602,204 165.233378,204 L30.7666224,204 C20.0683975,204 16.1889627,202.886093 12.2778516,200.794408 C8.36674045,198.702722 5.29727756,195.63326 3.20559245,191.722148 C1.11390733,187.811037 0,183.931602 0,173.233378 Z" id="floppy" fill="#85BBFF" fill-rule="evenodd" mask="url(#mask-2)"></path>
        <circle id="left-white" fill="#FFFFFF" fill-rule="evenodd" mask="url(#mask-2)" cx="53" cy="123" r="32"></circle>
        <circle id="left-pupil" fill="#000000" fill-rule="evenodd" mask="url(#mask-2)" cx="46" cy="130" r="17"></circle>
        <circle id="right-white" fill="#FFFFFF" fill-rule="evenodd" mask="url(#mask-2)" transform="translate(142, 123) rotate(180) translate(-142, -123)" cx="142" cy="123" r="32"></circle>
        <path d="M40,0 L133,0 L133,42.7444592 L132.994717,43.450585 C132.947236,46.4889492 132.580613,47.6935897 131.931469,48.9073828 C131.234241,50.2110865 130.211087,51.2342408 128.907383,51.9314692 L128.637053,52.0710579 C127.414504,52.6781457 126.064598,53 122.744459,53 L50.2555408,53 L49.549415,52.9947169 C46.5110508,52.9472357 45.3064103,52.5806128 44.0926172,51.9314692 C42.7889135,51.2342408 41.7657592,50.2110865 41.0685308,48.9073828 L40.9289421,48.6370527 C40.3443391,47.4597833 40.0242323,46.1644163 40.0013226,43.1053492 L40,0 Z" id="slide-lock" fill="#FFFFFF" fill-rule="evenodd" mask="url(#mask-2)"></path>
        <circle id="right-pupil" fill="#000000" fill-rule="evenodd" mask="url(#mask-2)" transform="translate(149, 116) rotate(180) translate(-149, -116)" cx="149" cy="116" r="17"></circle>
        <ellipse id="mouth" fill="#FFFFFF" fill-rule="evenodd" mask="url(#mask-2)" cx="98.5" cy="165" rx="26.5" ry="10"></ellipse>
    </g>
</svg>