<?xml version="1.0" encoding="UTF-8"?>
<svg width="196px" height="204px" viewBox="0 0 196 204" version="1.1" xmlns="http://www.w3.org/2000/svg" xmlns:xlink="http://www.w3.org/1999/xlink">
    <title>export</title>
    <g id="export" stroke="none" fill="none" fill-rule="evenodd" stroke-width="1">
        <g id="pippin" transform="translate(0, 0.001)">
            <path d="M0,30.7656631 C0,20.0674382 1.11390733,16.1880033 3.20559245,12.2768922 C5.29727756,8.36578112 8.36674045,5.29631823 12.2778516,3.20463312 L12.6757493,2.99529536 C16.3934236,1.07303493 20.2917651,0.0358024745 30.2284881,0 L127.833536,0 C137.367815,0.0277657833 140.939076,0.432292159 144.843791,1.36240505 C148.890495,2.32634024 152.467556,3.8547814 155.96131,6.11280534 L156.688868,6.59183077 C159.754415,8.65048091 162.574067,11.0924373 168.703336,17.4637635 L180.002732,29.2765016 C186.435163,36.0358248 188.514811,38.7228819 190.495985,41.9983949 C192.549203,45.3930176 193.925206,48.8222476 194.787906,52.6945742 L194.91988,53.30383 C195.686416,56.9525222 196,60.5886204 196,70.1829406 L196,173.232418 C196,183.930643 194.886093,187.810078 192.794408,191.721189 C190.702722,195.6323 187.63326,198.701763 183.722148,200.793448 L183.324251,201.002786 C179.606576,202.925046 175.708235,203.962279 165.771512,203.999041 L30.7666224,203.999041 C20.0683975,203.999041 16.1889627,202.885133 12.2778516,200.793448 C8.36674045,198.701763 5.29727756,195.6323 3.20559245,191.721189 L2.99625469,191.323291 C1.07399426,187.605617 0.0367618007,183.707276 0,173.770553 L0,30.7656631 Z" id="floppy" fill="#85BBFF"></path>
            <g id="eyes" transform="translate(22, 52.999)">
                <g id="left-eye" transform="translate(0, 2)">
                    <circle id="left-white" fill="#FFFFFF" cx="32" cy="32" r="32"></circle>
                    <circle id="left-pupil" fill="#000000" cx="25" cy="39" r="17"></circle>
                </g>
                <g id="right-eye" transform="translate(89, 0)">
                    <circle id="right-white" fill="#FFFFFF" transform="translate(32, 32) rotate(180) translate(-32, -32)" cx="32" cy="32" r="32"></circle>
                    <circle id="right-pupil" fill="#000000" transform="translate(39, 25) rotate(180) translate(-39, -25)" cx="39" cy="25" r="17"></circle>
                </g>
            </g>
            <circle id="mouth" fill="#FFFFFF" cx="99" cy="139.999041" r="21"></circle>
        </g>
    </g>
</svg>